<?xml version="1.0" encoding="utf-8"?>
<!-- Generator: Adobe Illustrator 22.0.0, SVG Export Plug-In . SVG Version: 6.00 Build 0)  -->
<svg version="1.1" id="Layer_1" xmlns="http://www.w3.org/2000/svg" xmlns:xlink="http://www.w3.org/1999/xlink" x="0px" y="0px"
	 viewBox="0 0 194.5 276.9" style="enable-background:new 0 0 194.5 276.9;" xml:space="preserve">
<style type="text/css">
	.st0{fill:url(#SVGID_1_);}
	.st1{enable-background:new    ;}
	.st2{fill:#50A5C1;}
	.st3{fill:url(#XMLID_7_);}
	.st4{fill:url(#XMLID_17_);}
	.st5{fill:#366C7E;}
	.st6{fill:url(#SVGID_2_);}
	.st7{fill:url(#XMLID_20_);}
	.st8{fill:none;stroke:#000000;stroke-miterlimit:10;stroke-dasharray:24,2,3,2;}
	.st9{fill:#FFFFFF;stroke:#B3B3B3;stroke-width:0.5;stroke-miterlimit:10;}
	.st10{fill:#005F89;}
	.st11{fill:url(#SVGID_3_);}
</style>
<linearGradient id="SVGID_1_" gradientUnits="userSpaceOnUse" x1="15.248" y1="217.2576" x2="192.6423" y2="217.2576">
	<stop  offset="0" style="stop-color:#808285;stop-opacity:0.9"/>
	<stop  offset="0.4622" style="stop-color:#BCBEC0;stop-opacity:0.9"/>
	<stop  offset="0.6865" style="stop-color:#F1F2F2;stop-opacity:0.9"/>
	<stop  offset="0.825" style="stop-color:#F9FAFA;stop-opacity:0.9"/>
	<stop  offset="1" style="stop-color:#FFFFFF;stop-opacity:0.9"/>
</linearGradient>
<path class="st0" d="M161.3,189.1c0,0-26.1,6.5-27.8,6.8l-7.4-1.3c-11.6-1.5-39.3,6.5-39.3,6.5S52,210.3,52,210.3
	c-1.4,0.1,0.8,0.6-17.5,4.8c-1.3,0.3-11,3.9-12.2,4.7c-3.6,2.2-6.8,6.8-7,8.5c-0.5,3.5,4,8.6,11.2,11.2c8.9,3.2,17,4.6,27,5.5
	c6.6,0.6,12.8,0.8,22.4,0.2c12.2-0.8,37.3-6.8,39.9-7.9l11.9-4c0.1,0,0.3-0.1,0.4-0.1l42.3-17.4c9.4-3.4,3.6-5.4-3.4-8.1l24.3-7.8
	c5.5-1.7-7.6-6.9-8-7C167.1,188.2,161.3,189.1,161.3,189.1z"/>
<g>
	<g id="XMLID_9_">
		<g>
			<g id="XMLID_61_">
				<g id="XMLID_62_" class="st1">
					<g id="XMLID_63_">
						<path id="XMLID_64_" class="st2" d="M29.7,216.9c-19.2,6.5-19.3,17-0.2,23.5c19.1,6.5,50.2,6.5,69.4,0
							c19.2-6.5,19.3-17,0.2-23.5C80,210.4,48.9,210.4,29.7,216.9z"/>
					</g>
				</g>
			</g>
		</g>
	</g>
	<g id="XMLID_8_">
		<linearGradient id="XMLID_7_" gradientUnits="userSpaceOnUse" x1="15.1977" y1="184.5114" x2="113.3044" y2="184.5114">
			<stop  offset="0" style="stop-color:#BDE5E9"/>
			<stop  offset="0.2755" style="stop-color:#B3E1E6"/>
			<stop  offset="0.6514" style="stop-color:#6AB8CC"/>
			<stop  offset="1" style="stop-color:#5CADC4"/>
		</linearGradient>
		<path id="XMLID_45_" class="st3" d="M15.4,230.2c-0.2-0.9-0.2-1.8,0-2.6v-104h98v105.2h0c0,4.3-4.9,8.5-14.5,11.8
			c-19.2,6.5-50.3,6.5-69.4,0C20.9,237.7,16.2,234,15.4,230.2L15.4,230.2L15.4,230.2z"/>
	</g>
	<g id="XMLID_1_">
		<g>
			<g id="XMLID_65_">
				<g id="XMLID_66_" class="st1">
					<g id="XMLID_67_">
						<path id="XMLID_68_" class="st2" d="M29.7,111.8c-19.2,6.5-19.3,17-0.2,23.5c19.1,6.5,50.2,6.5,69.4,0
							c19.2-6.5,19.3-17,0.2-23.5C80,105.3,48.9,105.3,29.7,111.8z"/>
					</g>
				</g>
			</g>
		</g>
	</g>
</g>
<g>
	<g id="XMLID_27_">
		<linearGradient id="XMLID_17_" gradientUnits="userSpaceOnUse" x1="35.4412" y1="94.0688" x2="92.9676" y2="94.0688">
			<stop  offset="0" style="stop-color:#356271;stop-opacity:0.8"/>
			<stop  offset="4.993591e-02" style="stop-color:#3B7485;stop-opacity:0.8"/>
			<stop  offset="0.1099" style="stop-color:#3F8499;stop-opacity:0.8"/>
			<stop  offset="0.1718" style="stop-color:#428FA6;stop-opacity:0.8"/>
			<stop  offset="0.2377" style="stop-color:#4393AB;stop-opacity:0.8"/>
			<stop  offset="0.4838" style="stop-color:#B6E2E6"/>
			<stop  offset="0.7541" style="stop-color:#4393AB;stop-opacity:0.8"/>
			<stop  offset="1" style="stop-color:#356271;stop-opacity:0.8"/>
		</linearGradient>
		<path id="XMLID_29_" class="st4" d="M35.5,120.8c-0.1-0.5-0.1-1,0-1.5v-61H93V120h0c0,2.5-2.9,5-8.5,6.9
			c-11.3,3.8-29.5,3.8-40.7,0C38.8,125.2,36,123.1,35.5,120.8L35.5,120.8L35.5,120.8z"/>
	</g>
</g>
<g id="XMLID_30_">
	<g id="XMLID_32_">
		<g id="XMLID_33_" class="st1">
			<g id="XMLID_34_">
				<path id="XMLID_35_" class="st5" d="M44,113c-11.3,3.8-11.3,10-0.1,13.8s29.4,3.8,40.7,0c11.3-3.8,11.3-10,0.1-13.8
					C73.5,109.2,55.2,109.2,44,113z"/>
			</g>
		</g>
	</g>
</g>
<linearGradient id="SVGID_2_" gradientUnits="userSpaceOnUse" x1="46.8449" y1="88.9833" x2="81.6448" y2="88.9833">
	<stop  offset="5.405406e-03" style="stop-color:#ACDDEC;stop-opacity:0.9"/>
	<stop  offset="0.1176" style="stop-color:#D2ECF4;stop-opacity:0.9"/>
	<stop  offset="0.2272" style="stop-color:#F1F9FB;stop-opacity:0.9"/>
	<stop  offset="0.2892" style="stop-color:#FFFFFF;stop-opacity:0.9"/>
	<stop  offset="0.3365" style="stop-color:#F4F9FC;stop-opacity:0.9"/>
	<stop  offset="0.4084" style="stop-color:#DFEEF5;stop-opacity:0.9"/>
	<stop  offset="0.496" style="stop-color:#BCDEEC;stop-opacity:0.9"/>
	<stop  offset="0.595" style="stop-color:#8ACAE2;stop-opacity:0.9"/>
	<stop  offset="0.673" style="stop-color:#58BBD9;stop-opacity:0.9"/>
	<stop  offset="0.7144" style="stop-color:#78C4DE;stop-opacity:0.9"/>
	<stop  offset="0.8106" style="stop-color:#B2DAEA;stop-opacity:0.9"/>
	<stop  offset="0.8937" style="stop-color:#DAECF3;stop-opacity:0.9"/>
	<stop  offset="0.9596" style="stop-color:#F3F9FB;stop-opacity:0.9"/>
	<stop  offset="1" style="stop-color:#FFFFFF;stop-opacity:0.9"/>
</linearGradient>
<polyline class="st6" points="81.6,58.4 81.6,119.4 46.9,119.6 46.8,58.4 81.6,58.4 "/>
<g id="Bottom">
	<g id="XMLID_24_" class="st1">
		<g id="XMLID_25_">
			<path id="XMLID_26_" class="st2" d="M52,115.9c-6.8,2.1-6.9,5.5-0.1,7.6s17.8,2.1,24.6,0c6.8-2.1,6.9-5.5,0.1-7.6
				C69.8,113.7,58.8,113.7,52,115.9z"/>
		</g>
	</g>
</g>
<g id="Top_Base">
	<g>
		<g id="XMLID_50_" class="st1">
			<g id="XMLID_51_">
				<path id="XMLID_52_" class="st5" d="M44,51.4c-11.3,3.8-11.3,10-0.1,13.8s29.4,3.8,40.7,0c11.3-3.8,11.3-10,0.1-13.8
					C73.5,47.6,55.2,47.6,44,51.4z"/>
			</g>
		</g>
	</g>
</g>
<g id="Top">
	<g id="XMLID_14_" class="st1">
		<g id="XMLID_15_">
			<linearGradient id="XMLID_20_" gradientUnits="userSpaceOnUse" x1="46.8258" y1="58.4716" x2="81.6638" y2="58.4716">
				<stop  offset="1.621622e-02" style="stop-color:#FFFFFF;stop-opacity:0.9"/>
				<stop  offset="3.986841e-02" style="stop-color:#E0E9EE;stop-opacity:0.9"/>
				<stop  offset="8.594665e-02" style="stop-color:#B3CDDA;stop-opacity:0.9"/>
				<stop  offset="0.1321" style="stop-color:#8FB9CB;stop-opacity:0.9"/>
				<stop  offset="0.1775" style="stop-color:#72ABC1;stop-opacity:0.9"/>
				<stop  offset="0.222" style="stop-color:#5CA2BA;stop-opacity:0.9"/>
				<stop  offset="0.2651" style="stop-color:#4D9DB5;stop-opacity:0.9"/>
				<stop  offset="0.3054" style="stop-color:#489BB4;stop-opacity:0.9"/>
				<stop  offset="0.3394" style="stop-color:#65A5BC;stop-opacity:0.9"/>
				<stop  offset="0.4118" style="stop-color:#A2C4D3;stop-opacity:0.9"/>
				<stop  offset="0.5054" style="stop-color:#FFFFFF;stop-opacity:0.9"/>
				<stop  offset="0.5942" style="stop-color:#F4F7F9;stop-opacity:0.9"/>
				<stop  offset="0.6946" style="stop-color:#E5ECF0;stop-opacity:0.9"/>
				<stop  offset="0.7192" style="stop-color:#D6E3EA;stop-opacity:0.9"/>
				<stop  offset="0.7667" style="stop-color:#B0CDDA;stop-opacity:0.9"/>
				<stop  offset="0.8316" style="stop-color:#73AEC3;stop-opacity:0.9"/>
				<stop  offset="0.8541" style="stop-color:#5AA5BC;stop-opacity:0.9"/>
			</linearGradient>
			<path id="XMLID_16_" class="st7" d="M52,54.7c-6.8,2.1-6.9,5.5-0.1,7.6s17.8,2.1,24.6,0c6.8-2.1,6.9-5.5,0.1-7.6
				C69.8,52.5,58.8,52.5,52,54.7z"/>
		</g>
	</g>
</g>
<line class="st8" x1="64.2" y1="31.9" x2="64.2" y2="272.4"/>
<path class="st9" d="M93.4,28.2H35.1c-3.8,0-6.9-3.1-6.9-6.9v0c0-3.8,3.1-6.9,6.9-6.9h58.3c3.8,0,6.9,3.1,6.9,6.9v0
	C100.3,25.1,97.2,28.2,93.4,28.2z"/>
<g>
	<g>
		<path class="st10" d="M38.2,23.3l-0.3-1.1h-1.6l-0.3,1.1h-1l1.6-4.5h1.2l1.6,4.5H38.2z M37.7,21.4c-0.3-1-0.5-1.5-0.5-1.7
			s-0.1-0.2-0.1-0.3c-0.1,0.3-0.3,0.9-0.6,2H37.7z"/>
		<path class="st10" d="M43.5,23.3h-1.1l-1.1-1.7l-1.1,1.7h-1l1.5-2.3l-1.4-2.2h1.1l1,1.6l1-1.6h1L42,21L43.5,23.3z"/>
		<path class="st10" d="M44.1,23.3v-4.5h1v4.5H44.1z"/>
		<path class="st10" d="M48.8,22c0,0.4-0.1,0.7-0.4,1s-0.7,0.4-1.2,0.4c-0.5,0-0.9-0.1-1.3-0.3v-0.9c0.3,0.1,0.6,0.2,0.8,0.3
			c0.2,0.1,0.4,0.1,0.6,0.1c0.2,0,0.4,0,0.5-0.1c0.1-0.1,0.2-0.2,0.2-0.4c0-0.1,0-0.2-0.1-0.2c0-0.1-0.1-0.1-0.2-0.2
			c-0.1-0.1-0.3-0.2-0.6-0.3c-0.3-0.1-0.5-0.3-0.6-0.4c-0.1-0.1-0.2-0.3-0.3-0.4s-0.1-0.3-0.1-0.6c0-0.4,0.1-0.7,0.4-0.9
			c0.3-0.2,0.6-0.3,1.1-0.3c0.2,0,0.5,0,0.7,0.1c0.2,0.1,0.4,0.1,0.7,0.2l-0.3,0.7c-0.2-0.1-0.4-0.2-0.6-0.2c-0.2,0-0.3-0.1-0.5-0.1
			c-0.2,0-0.3,0-0.4,0.1c-0.1,0.1-0.1,0.2-0.1,0.3c0,0.1,0,0.2,0.1,0.2c0,0.1,0.1,0.1,0.2,0.2c0.1,0.1,0.3,0.2,0.6,0.3
			c0.4,0.2,0.7,0.4,0.9,0.6C48.8,21.5,48.8,21.7,48.8,22z"/>
		<path class="st10" d="M55.4,21c0,0.7-0.2,1.3-0.6,1.7c-0.4,0.4-0.9,0.6-1.6,0.6s-1.2-0.2-1.6-0.6c-0.4-0.4-0.6-1-0.6-1.7
			c0-0.8,0.2-1.3,0.6-1.7c0.4-0.4,0.9-0.6,1.6-0.6c0.7,0,1.2,0.2,1.6,0.6C55.2,19.7,55.4,20.2,55.4,21z M52.1,21
			c0,0.5,0.1,0.9,0.3,1.1s0.5,0.4,0.9,0.4c0.8,0,1.1-0.5,1.1-1.5c0-1-0.4-1.5-1.1-1.5c-0.4,0-0.7,0.1-0.9,0.4S52.1,20.5,52.1,21z"/>
		<path class="st10" d="M57.3,23.3h-0.9v-4.5H59v0.8h-1.6v1.2h1.5v0.8h-1.5V23.3z"/>
		<path class="st10" d="M62.4,21.5v1.7h-1v-4.5h1.3c0.6,0,1.1,0.1,1.4,0.3c0.3,0.2,0.4,0.6,0.4,1c0,0.3-0.1,0.5-0.2,0.7
			s-0.4,0.4-0.6,0.5c0.7,1,1.1,1.7,1.3,2H64L63,21.5H62.4z M62.4,20.7h0.3c0.3,0,0.5,0,0.7-0.2c0.1-0.1,0.2-0.3,0.2-0.5
			c0-0.2-0.1-0.4-0.2-0.5s-0.4-0.1-0.7-0.1h-0.3V20.7z"/>
		<path class="st10" d="M69.8,21c0,0.7-0.2,1.3-0.6,1.7c-0.4,0.4-0.9,0.6-1.6,0.6s-1.2-0.2-1.6-0.6c-0.4-0.4-0.6-1-0.6-1.7
			c0-0.8,0.2-1.3,0.6-1.7c0.4-0.4,0.9-0.6,1.6-0.6c0.7,0,1.2,0.2,1.6,0.6C69.6,19.7,69.8,20.2,69.8,21z M66.5,21
			c0,0.5,0.1,0.9,0.3,1.1s0.5,0.4,0.9,0.4c0.8,0,1.1-0.5,1.1-1.5c0-1-0.4-1.5-1.1-1.5c-0.4,0-0.7,0.1-0.9,0.4S66.5,20.5,66.5,21z"/>
		<path class="st10" d="M72.5,23.3h-1v-3.7h-1.2v-0.8h3.4v0.8h-1.2V23.3z"/>
		<path class="st10" d="M77.2,23.3l-0.3-1.1h-1.6l-0.3,1.1h-1l1.6-4.5h1.2l1.6,4.5H77.2z M76.6,21.4c-0.3-1-0.5-1.5-0.5-1.7
			S76,19.5,76,19.4c-0.1,0.3-0.3,0.9-0.6,2H76.6z"/>
		<path class="st10" d="M80.5,23.3h-1v-3.7h-1.2v-0.8h3.4v0.8h-1.2V23.3z"/>
		<path class="st10" d="M82.4,23.3v-4.5h1v4.5H82.4z"/>
		<path class="st10" d="M88.6,21c0,0.7-0.2,1.3-0.6,1.7c-0.4,0.4-0.9,0.6-1.6,0.6s-1.2-0.2-1.6-0.6c-0.4-0.4-0.6-1-0.6-1.7
			c0-0.8,0.2-1.3,0.6-1.7c0.4-0.4,0.9-0.6,1.6-0.6c0.7,0,1.2,0.2,1.6,0.6C88.4,19.7,88.6,20.2,88.6,21z M85.3,21
			c0,0.5,0.1,0.9,0.3,1.1s0.5,0.4,0.9,0.4c0.8,0,1.1-0.5,1.1-1.5c0-1-0.4-1.5-1.1-1.5c-0.4,0-0.7,0.1-0.9,0.4S85.3,20.5,85.3,21z"/>
		<path class="st10" d="M93.6,23.3h-1.2l-2-3.4h0c0,0.6,0.1,1,0.1,1.3v2.1h-0.9v-4.5h1.2l2,3.4h0c0-0.6,0-1,0-1.2v-2.1h0.9V23.3z"/>
	</g>
</g>
<linearGradient id="SVGID_3_" gradientUnits="userSpaceOnUse" x1="92.9587" y1="116.2076" x2="113.3785" y2="116.2076">
	<stop  offset="0" style="stop-color:#2E404A;stop-opacity:0.8"/>
	<stop  offset="0.103" style="stop-color:#36535F;stop-opacity:0.8"/>
	<stop  offset="0.2371" style="stop-color:#3D6877;stop-opacity:0.8"/>
	<stop  offset="0.3823" style="stop-color:#407A8C;stop-opacity:0.8"/>
	<stop  offset="0.5422" style="stop-color:#42879C;stop-opacity:0.8"/>
	<stop  offset="0.7278" style="stop-color:#4290A7;stop-opacity:0.8"/>
	<stop  offset="1" style="stop-color:#4393AB;stop-opacity:0.8"/>
</linearGradient>
<path class="st11" d="M93,120.5c0,0,15.7,1.9,20.4,1.9C111.3,113.9,93,110,93,110L93,120.5z"/>
</svg>
