<svg id="Layer_1" data-name="Layer 1" xmlns="http://www.w3.org/2000/svg" xmlns:xlink="http://www.w3.org/1999/xlink" viewBox="0 0 160.58 248.38"><defs><style>.cls-1{fill:url(#linear-gradient);}.cls-2{isolation:isolate;}.cls-3{fill:#50a5c1;}.cls-4{fill:url(#linear-gradient-2);}.cls-11,.cls-5,.cls-6{fill:none;}.cls-5,.cls-6{stroke:#727373;}.cls-11,.cls-12,.cls-5,.cls-6{stroke-miterlimit:10;}.cls-12,.cls-5,.cls-6{stroke-width:0.5px;}.cls-6{stroke-dasharray:6.03 3.01;}.cls-7{fill:url(#linear-gradient-3);}.cls-8{fill:#366c7e;}.cls-9{fill:url(#linear-gradient-4);}.cls-10{fill:url(#linear-gradient-5);}.cls-11{stroke:#231f20;stroke-dasharray:24 2 3 2;}.cls-12{fill:#fff;stroke:#b3b3b3;}.cls-13{font-size:6.34px;fill:#005f89;font-family:OpenSans-Bold, Open Sans;font-weight:700;}.cls-14{fill:url(#linear-gradient-6);}</style><linearGradient id="linear-gradient" x1="4.84" y1="208.4" x2="165.23" y2="208.4" gradientUnits="userSpaceOnUse"><stop offset="0" stop-color="#808285" stop-opacity="0.9"/><stop offset="0.46" stop-color="#bcbec0" stop-opacity="0.9"/><stop offset="0.69" stop-color="#f1f2f2" stop-opacity="0.9"/><stop offset="0.82" stop-color="#fbfbfb" stop-opacity="0.9"/><stop offset="1" stop-color="#fff" stop-opacity="0.9"/></linearGradient><linearGradient id="linear-gradient-2" x1="5.01" y1="173.16" x2="103.11" y2="173.16" gradientUnits="userSpaceOnUse"><stop offset="0" stop-color="#bde5e9" stop-opacity="0.9"/><stop offset="0.09" stop-color="#b7e3e7" stop-opacity="0.9"/><stop offset="0.28" stop-color="#b3e1e6" stop-opacity="0.9"/><stop offset="0.65" stop-color="#6ab8cc"/><stop offset="1" stop-color="#5cadc4"/></linearGradient><linearGradient id="linear-gradient-3" x1="25.03" y1="82.72" x2="82.56" y2="82.72" gradientUnits="userSpaceOnUse"><stop offset="0" stop-color="#356271" stop-opacity="0.8"/><stop offset="0.03" stop-color="#396f81" stop-opacity="0.8"/><stop offset="0.1" stop-color="#3e8398" stop-opacity="0.8"/><stop offset="0.17" stop-color="#428fa6" stop-opacity="0.8"/><stop offset="0.24" stop-color="#4393ab" stop-opacity="0.8"/><stop offset="0.48" stop-color="#b6e2e6"/><stop offset="0.75" stop-color="#4393ab" stop-opacity="0.8"/><stop offset="1" stop-color="#356271" stop-opacity="0.8"/></linearGradient><linearGradient id="linear-gradient-4" x1="31.74" y1="74.93" x2="66.54" y2="74.93" gradientUnits="userSpaceOnUse"><stop offset="0.01" stop-color="#acddec" stop-opacity="0.9"/><stop offset="0.11" stop-color="#d2ecf5" stop-opacity="0.9"/><stop offset="0.23" stop-color="#f3fafc" stop-opacity="0.9"/><stop offset="0.29" stop-color="#fff" stop-opacity="0.9"/><stop offset="0.34" stop-color="#f7fcfd" stop-opacity="0.9"/><stop offset="0.41" stop-color="#dff2f8" stop-opacity="0.9"/><stop offset="0.5" stop-color="#b9e2ef" stop-opacity="0.9"/><stop offset="0.6" stop-color="#84cde3" stop-opacity="0.9"/><stop offset="0.67" stop-color="#58bbd9" stop-opacity="0.9"/><stop offset="0.71" stop-color="#72c5df" stop-opacity="0.9"/><stop offset="0.81" stop-color="#aedeed" stop-opacity="0.9"/><stop offset="0.89" stop-color="#daf0f7" stop-opacity="0.9"/><stop offset="0.96" stop-color="#f5fbfd" stop-opacity="0.9"/><stop offset="1" stop-color="#fff" stop-opacity="0.9"/></linearGradient><linearGradient id="linear-gradient-5" x1="36.34" y1="47.12" x2="71.18" y2="47.12" gradientUnits="userSpaceOnUse"><stop offset="0.02" stop-color="#fff" stop-opacity="0.9"/><stop offset="0.03" stop-color="#f3f8fa" stop-opacity="0.9"/><stop offset="0.07" stop-color="#bfdce5" stop-opacity="0.9"/><stop offset="0.12" stop-color="#94c5d3" stop-opacity="0.9"/><stop offset="0.17" stop-color="#73b2c6" stop-opacity="0.9"/><stop offset="0.22" stop-color="#5ba5bc" stop-opacity="0.9"/><stop offset="0.26" stop-color="#4d9eb6" stop-opacity="0.9"/><stop offset="0.31" stop-color="#489bb4" stop-opacity="0.9"/><stop offset="0.34" stop-color="#64aabf" stop-opacity="0.9"/><stop offset="0.42" stop-color="#abd1dd" stop-opacity="0.9"/><stop offset="0.51" stop-color="#fff" stop-opacity="0.9"/><stop offset="0.59" stop-color="#f7f9fa" stop-opacity="0.9"/><stop offset="0.69" stop-color="#e5ecf0" stop-opacity="0.9"/><stop offset="0.72" stop-color="#d4e3ea" stop-opacity="0.9"/><stop offset="0.77" stop-color="#a8cdd9" stop-opacity="0.9"/><stop offset="0.85" stop-color="#62a9bf" stop-opacity="0.9"/><stop offset="0.85" stop-color="#5aa5bc" stop-opacity="0.9"/></linearGradient><linearGradient id="linear-gradient-6" x1="82.55" y1="104.85" x2="102.97" y2="104.85" gradientUnits="userSpaceOnUse"><stop offset="0" stop-color="#2e404a" stop-opacity="0.8"/><stop offset="0.01" stop-color="#2e424c" stop-opacity="0.8"/><stop offset="0.16" stop-color="#365f6e" stop-opacity="0.8"/><stop offset="0.32" stop-color="#3c7689" stop-opacity="0.8"/><stop offset="0.49" stop-color="#40869c" stop-opacity="0.8"/><stop offset="0.7" stop-color="#4290a8" stop-opacity="0.8"/><stop offset="1" stop-color="#4393ab" stop-opacity="0.8"/></linearGradient></defs><title>ComplexShape</title><path class="cls-1" d="M133.87,182.79s-26.13,6.48-27.8,6.83l-7.43-1.29a63.31,63.31,0,0,0-22.28,1.52l-34.77,9.09c-1.36.09.78.6-17.55,4.77a122.59,122.59,0,0,0-12.17,4.67c-3.59,2.24-6.75,6.78-7,8.5-.5,3.5,4,8.57,11.17,11.16,8.86,3.22,17,4.64,27,5.5a131.48,131.48,0,0,0,22.42.17c12.18-.85,37.33-6.81,39.85-7.92l11.94-4,.4-.15L143,209.19c9.4-3.4,3.57-5.4-3.43-8.15l24.33-7.75c5.53-1.74-7.61-6.89-8-7C139.64,181.82,133.87,182.79,133.87,182.79Z" transform="translate(-4.65 -2.7)"/><g id="_Group_" data-name="&lt;Group&gt;"><g id="_Group_2" data-name="&lt;Group&gt;"><g id="_Group_3" data-name="&lt;Group&gt;" class="cls-2"><g id="_Group_4" data-name="&lt;Group&gt;"><path id="_Path_" data-name="&lt;Path&gt;" class="cls-3" d="M19.48,205.51c-19.23,6.5-19.33,17-.23,23.54s50.15,6.5,69.37,0,19.34-17,.24-23.54S38.7,199,19.48,205.51Z" transform="translate(-4.65 -2.7)"/></g></g></g></g><g id="_Group_5" data-name="&lt;Group&gt;"><path id="_Path_2" data-name="&lt;Path&gt;" class="cls-4" d="M5.16,218.82a5.7,5.7,0,0,1,0-2.63v-104h98V217.45h0c0,4.26-4.88,8.52-14.49,11.77-19.22,6.5-50.27,6.5-69.37,0-8.52-2.9-13.21-6.61-14.09-10.4Z" transform="translate(-4.65 -2.7)"/></g><g id="_Group_6" data-name="&lt;Group&gt;"><g id="_Group_7" data-name="&lt;Group&gt;"><g id="_Group_8" data-name="&lt;Group&gt;" class="cls-2"><g id="_Group_9" data-name="&lt;Group&gt;"><path id="_Path_3" data-name="&lt;Path&gt;" class="cls-3" d="M19.48,100.46C.25,107,.15,117.49,19.25,124s50.15,6.51,69.37,0,19.34-17,.24-23.54S38.7,94,19.48,100.46Z" transform="translate(-4.65 -2.7)"/></g></g></g><path class="cls-5" d="M4.9,217a5.86,5.86,0,0,1,.8-2.85" transform="translate(-4.65 -2.7)"/><path class="cls-6" d="M7.56,211.76C14.18,205.29,32.47,200,54,200c22.16,0,40.88,5.87,47,11.71" transform="translate(-4.65 -2.7)"/><path class="cls-5" d="M102,212.87a4.59,4.59,0,0,1,1.09,2.74" transform="translate(-4.65 -2.7)"/></g><g id="_Group_10" data-name="&lt;Group&gt;"><path id="_Path_4" data-name="&lt;Path&gt;" class="cls-7" d="M25.12,109.49a3.34,3.34,0,0,1,0-1.54V47H82.56v61.7h0c0,2.49-2.86,5-8.5,6.9-11.27,3.81-29.48,3.81-40.68,0-5-1.7-7.74-3.88-8.26-6.1Z" transform="translate(-4.65 -2.7)"/></g><g id="_Group_11" data-name="&lt;Group&gt;"><g id="_Group_12" data-name="&lt;Group&gt;"><g id="_Group_13" data-name="&lt;Group&gt;" class="cls-2"><g id="_Group_14" data-name="&lt;Group&gt;"><path id="_Path_5" data-name="&lt;Path&gt;" class="cls-8" d="M33.51,101.69c-11.27,3.81-11.33,10-.13,13.8s29.41,3.81,40.68,0,11.34-10,.14-13.81S44.79,97.87,33.51,101.69Z" transform="translate(-4.65 -2.7)"/></g></g></g></g><polyline class="cls-9" points="66.46 44.31 66.47 105.37 31.75 105.54 31.74 44.35 66.53 44.31"/><g id="Bottom"><g id="_Group_15" data-name="&lt;Group&gt;" class="cls-2"><g id="_Group_16" data-name="&lt;Group&gt;"><path id="_Path_6" data-name="&lt;Path&gt;" class="cls-3" d="M41.49,104.5c-6.83,2.11-6.87,5.53-.08,7.64s17.8,2.11,24.63,0,6.86-5.53.08-7.64S48.31,102.39,41.49,104.5Z" transform="translate(-4.65 -2.7)"/></g></g></g><g id="Top_Base" data-name="Top Base"><g id="_Group_17" data-name="&lt;Group&gt;" class="cls-2"><g id="_Group_18" data-name="&lt;Group&gt;"><path id="_Path_7" data-name="&lt;Path&gt;" class="cls-8" d="M33.51,40.09c-11.27,3.81-11.33,10-.13,13.8s29.41,3.81,40.68,0,11.34-10,.14-13.81S44.79,36.27,33.51,40.09Z" transform="translate(-4.65 -2.7)"/></g></g></g><g id="Top"><g id="_Group_19" data-name="&lt;Group&gt;" class="cls-2"><g id="_Group_20" data-name="&lt;Group&gt;"><path id="_Path_8" data-name="&lt;Path&gt;" class="cls-10" d="M41.49,43.3c-6.83,2.11-6.87,5.53-.08,7.64s17.8,2.11,24.63,0,6.86-5.53.08-7.64S48.31,41.19,41.49,43.3Z" transform="translate(-4.65 -2.7)"/></g></g></g><line class="cls-11" x1="49.36" y1="17.88" x2="49.36" y2="248.38"/><rect class="cls-12" x="13.25" y="0.25" width="72.21" height="13.88" rx="6.94" ry="6.94"/><text class="cls-13" transform="translate(19.55 9.21)">AXIS OF ROTATION</text><path class="cls-14" d="M82.6,109.18s15.7,1.95,20.37,1.9c-2-8.51-20.42-12.45-20.42-12.45Z" transform="translate(-4.65 -2.7)"/></svg>