<svg id="Layer_1" data-name="Layer 1" xmlns="http://www.w3.org/2000/svg" xmlns:xlink="http://www.w3.org/1999/xlink" viewBox="0 0 245.17 258.38"><defs><style>.cls-1{fill:url(#linear-gradient);}.cls-2{fill:#50a5c1;}.cls-3{fill:url(#linear-gradient-2);}.cls-11,.cls-12,.cls-4,.cls-5{fill:none;}.cls-4,.cls-5{stroke:#727373;}.cls-11,.cls-12,.cls-4,.cls-5,.cls-6,.cls-9{stroke-miterlimit:10;}.cls-5{stroke-dasharray:6.12 6.12;}.cls-10,.cls-6,.cls-9{fill:#fff;}.cls-6{stroke:#b3b3b3;}.cls-12,.cls-6,.cls-9{stroke-width:0.5px;}.cls-7{isolation:isolate;font-size:6.34px;fill:#005f89;font-family:OpenSans-Bold, Open Sans;font-weight:700;}.cls-8{fill:url(#linear-gradient-3);}.cls-9{stroke:#939598;}.cls-11{stroke:#231f20;stroke-dasharray:24 2 3 2;}.cls-12{stroke:#000;}</style><linearGradient id="linear-gradient" x1="-16.96" y1="363.38" x2="245.71" y2="363.38" gradientTransform="translate(-1 -156)" gradientUnits="userSpaceOnUse"><stop offset="0" stop-color="#808285" stop-opacity="0.9"/><stop offset="0.53" stop-color="#bcbec0" stop-opacity="0.9"/><stop offset="1" stop-color="#f1f2f2" stop-opacity="0.9"/></linearGradient><linearGradient id="linear-gradient-2" x1="53.34" y1="53.38" x2="197.16" y2="53.38" gradientTransform="translate(-7.64 95.94)" gradientUnits="userSpaceOnUse"><stop offset="0" stop-color="#bde5e9" stop-opacity="0.9"/><stop offset="0.09" stop-color="#b7e3e7" stop-opacity="0.9"/><stop offset="0.28" stop-color="#b3e1e6" stop-opacity="0.9"/><stop offset="0.65" stop-color="#6ab8cc" stop-opacity="0.9"/><stop offset="1" stop-color="#5cadc4" stop-opacity="0.9"/></linearGradient><linearGradient id="linear-gradient-3" x1="74.09" y1="34.62" x2="161.09" y2="34.62" gradientTransform="translate(0 102)" gradientUnits="userSpaceOnUse"><stop offset="0" stop-color="#f1f2f2" stop-opacity="0.9"/><stop offset="0.28" stop-color="#e6e7e8" stop-opacity="0.9"/><stop offset="0.68" stop-color="#e6e7e8" stop-opacity="0.9"/><stop offset="0.73" stop-color="#d9e5e7" stop-opacity="0.9"/><stop offset="0.81" stop-color="#c4e3e7" stop-opacity="0.9"/><stop offset="0.9" stop-color="#b7e1e6" stop-opacity="0.9"/><stop offset="1" stop-color="#b3e1e6" stop-opacity="0.9"/></linearGradient></defs><title>HCylinder_Mass_f</title><path class="cls-1" d="M242.7,201.2c8-5-4-15.3-27.3-20.7-17-3.9-13.3-9-81.6,7.2-12.2.9-12,4.5-5.8,8.9,10.8,7.7,40,17.6,54.4,19.1,1,.1,2.2.2,3.3.2a30.44,30.44,0,0,1-3.3-.2c-14.5-1.5-43.6-11.4-54.4-19.1L47.3,214.1c-1,.3,2.4-.6,2-.3v3l-2.5-1.9c-1.7,1.4,5.47,10.52,15.07,14.22,23,8.08,37.89,10.41,70.13,8.46,16.7-1.1,35.8-8,39.3-9.48l16.6-5.5Z" transform="translate(0 0)"/><g id="Layer_1-2" data-name="Layer 1-2"><g id="_Group_" data-name=" Group "><g id="_Group_2" data-name=" Group 2"><g id="_Group_3" data-name=" Group 3"><g id="_Group_4" data-name=" Group 4"><path id="_Path_" data-name=" Path " class="cls-2" d="M66.91,196.75c-28.17,9.53-28.32,25-.33,34.51s73.52,9.53,101.7,0,28.34-25,.35-34.51S95.09,187.22,66.91,196.75Z" transform="translate(0 0)"/></g></g></g></g><g id="_Group_5" data-name=" Group 5"><path id="_Path_2" data-name=" Path 2" class="cls-3" d="M45.93,216.27a8.39,8.39,0,0,1,0-3.86V60H189.52V214.25h0c-.07,6.25-7.15,12.49-21.24,17.26-28.18,9.53-73.7,9.53-101.7,0-12.49-4.25-19.36-9.68-20.65-15.24Z" transform="translate(0 0)"/></g><g id="_Group_6" data-name=" Group 6"><path class="cls-4" d="M45.55,213.56a8,8,0,0,1,.57-2.93" transform="translate(0 0)"/><path class="cls-5" d="M49.66,205.7c9.9-9.38,36.54-17,67.86-17,33,0,60.75,8.87,69.27,17.56" transform="translate(0 0)"/><path class="cls-4" d="M188.66,208.71a5.85,5.85,0,0,1,.82,2.85" transform="translate(0 0)"/></g><path class="cls-6" d="M88.61.25h58.33a6.94,6.94,0,0,1,6.94,6.94h0a6.94,6.94,0,0,1-6.94,6.94H88.61a6.94,6.94,0,0,1-6.94-6.94h0A6.94,6.94,0,0,1,88.61.25Z" transform="translate(0 0)"/><text class="cls-7" transform="translate(87.97 9.21)">AXIS OF ROTATION</text><polyline class="cls-8" points="160.91 60.09 160.94 212.74 74.14 213.15 74.09 60.18 161.09 60.09"/><g id="_Group_7" data-name=" Group 7"><g id="_Group_8" data-name=" Group 8"><g id="_Group_9" data-name=" Group 9"><path id="_Path_3" data-name=" Path 3" class="cls-9" d="M86.84,203.79c-17.06,5.27-17.15,13.82-.2,19.09s44.52,5.27,61.58,0,17.16-13.82.21-19.09S103.9,198.52,86.84,203.79Z" transform="translate(0 0)"/></g></g></g><g id="_Group_10" data-name=" Group 10"><g id="_Group_11" data-name=" Group 11"><g id="_Group_12" data-name=" Group 12"><path id="_Path_4" data-name=" Path 4" class="cls-2" d="M66.91,42.75c-28.17,9.53-28.32,25-.33,34.51s73.52,9.53,101.7,0,28.34-25,.35-34.51S95.09,33.22,66.91,42.75Z" transform="translate(0 0)"/></g></g></g><g id="_Group_13" data-name=" Group 13"><g id="_Group_14" data-name=" Group 14"><g id="_Group_15" data-name=" Group 15"><path id="_Path_5" data-name=" Path 5" class="cls-10" d="M86.84,50.79c-17.06,5.27-17.15,13.82-.2,19.09s44.52,5.27,61.58,0,17.16-13.82.21-19.09S103.9,45.52,86.84,50.79Z" transform="translate(0 0)"/></g></g></g><line class="cls-11" x1="117.77" y1="17.88" x2="117.77" y2="258.38"/></g><g id="Layer_6" data-name="Layer 6"><line class="cls-12" x1="185.62" y1="36.72" x2="50.64" y2="36.72"/><path d="M184.06,33.56v6.28l3.74-3.14Z" transform="translate(0 0)"/><path d="M50.8,39.84V33.56L47.06,36.7Z" transform="translate(0 0)"/><line class="cls-12" x1="158.95" y1="60.05" x2="78.97" y2="60.05"/><path d="M156.36,56.94v6.27l3.75-3.14Z" transform="translate(0 0)"/><path d="M79.14,63.17V56.94L75.36,60Z" transform="translate(0 0)"/><path class="cls-6" d="M143.85,19h60.33a6.94,6.94,0,0,1,6.94,6.94h0a6.94,6.94,0,0,1-6.94,6.94H143.85a6.94,6.94,0,0,1-6.94-6.94h0A6.94,6.94,0,0,1,143.85,19Z" transform="translate(0 0)"/><text class="cls-7" transform="translate(143.29 28.27)">OUTSIDE DIAMETER</text><rect class="cls-6" x="121.91" y="40.97" width="67.21" height="13.88" rx="6.94" ry="6.94"/><text class="cls-7" transform="translate(128.29 50.27)">INSIDE DIAMETER</text><line class="cls-12" x1="45.64" y1="62.25" x2="45.64" y2="35.43"/><line class="cls-12" x1="189.64" y1="62.25" x2="189.64" y2="35.43"/></g><g id="Length"><path class="cls-6" d="M7.19,130.94H29.52a6.94,6.94,0,0,1,6.94,6.94h0a6.94,6.94,0,0,1-6.94,6.94H7.19a6.94,6.94,0,0,1-6.94-6.94h0a6.94,6.94,0,0,1,6.94-6.94Z" transform="translate(0 0)"/><text class="cls-7" transform="translate(9.63 140.24)">MASS</text></g></svg>