<?xml version="1.0" encoding="utf-8"?>
<!-- Generator: Adobe Illustrator 22.0.0, SVG Export Plug-In . SVG Version: 6.00 Build 0)  -->
<svg version="1.1" id="Layer_1" xmlns="http://www.w3.org/2000/svg" xmlns:xlink="http://www.w3.org/1999/xlink" x="0px" y="0px"
	 viewBox="0 0 89.1 84.7" style="enable-background:new 0 0 89.1 84.7;" xml:space="preserve">
<style type="text/css">
	.st0{fill:url(#SVGID_1_);}
	.st1{fill:url(#XMLID_2_);}
	.st2{enable-background:new    ;}
	.st3{fill:#366C7E;}
	.st4{fill:url(#SVGID_2_);}
	.st5{fill:#FFFFFF;}
	.st6{fill:url(#XMLID_3_);}
</style>
<linearGradient id="SVGID_1_" gradientUnits="userSpaceOnUse" x1="24.5682" y1="71.9745" x2="86.4798" y2="71.9745">
	<stop  offset="0" style="stop-color:#808285;stop-opacity:0.9"/>
	<stop  offset="0.5324" style="stop-color:#BCBEC0;stop-opacity:0.9"/>
	<stop  offset="1" style="stop-color:#F1F2F2;stop-opacity:0.9"/>
</linearGradient>
<path class="st0" d="M70.3,62.6l-2.9-0.5c-4.5-0.6-15.2,2.5-15.2,2.5s-13.4,3.5-13.5,3.5c-0.5,0,0.3,0.2-6.8,1.8
	c-0.5,0.1-4.3,1.5-4.7,1.8c-1.4,0.9-2.6,2.6-2.7,3.3c-0.2,1.4,1.6,3.3,4.3,4.3c3.4,1.2,6.6,1.8,10.4,2.1c2.5,0.2,4.6,0.5,8.3,0.2
	c4.7-0.3,14.8-2.8,15.8-3.2l4.6-1.6c0.1,0,0.1,0,0.2-0.1l16.4-6.7c3.6-1.3,1.4-2.1-1.3-3.2"/>
<g>
	<g id="XMLID_53_">
		<linearGradient id="XMLID_2_" gradientUnits="userSpaceOnUse" x1="3.0294" y1="47.5982" x2="60.5559" y2="47.5982">
			<stop  offset="0" style="stop-color:#4393AB"/>
			<stop  offset="0.4838" style="stop-color:#B6E2E6"/>
			<stop  offset="1" style="stop-color:#4393AB"/>
		</linearGradient>
		<path id="XMLID_54_" class="st1" d="M3.1,74.4c-0.1-0.5-0.1-1,0-1.5v-61h57.4v61.7h0c0,2.5-2.9,5-8.5,6.9
			c-11.3,3.8-29.5,3.8-40.7,0C6.4,78.8,3.6,76.6,3.1,74.4L3.1,74.4L3.1,74.4z"/>
	</g>
</g>
<g id="XMLID_32_">
	<g id="XMLID_33_">
		<g id="XMLID_34_" class="st2">
			<g id="XMLID_35_">
				<path id="XMLID_52_" class="st3" d="M11.5,66.6c-11.3,3.8-11.3,10-0.1,13.8s29.4,3.8,40.7,0c11.3-3.8,11.3-10,0.1-13.8
					C41,62.8,22.8,62.8,11.5,66.6z"/>
			</g>
		</g>
	</g>
</g>
<linearGradient id="SVGID_2_" gradientUnits="userSpaceOnUse" x1="14.3874" y1="42.5127" x2="49.1873" y2="42.5127">
	<stop  offset="0" style="stop-color:#ACDDEC"/>
	<stop  offset="0.3324" style="stop-color:#DEF1F6"/>
	<stop  offset="0.4105" style="stop-color:#BBDFED"/>
	<stop  offset="0.5325" style="stop-color:#89CAE2"/>
	<stop  offset="0.6257" style="stop-color:#67BFDB"/>
	<stop  offset="0.6784" style="stop-color:#58BBD9"/>
	<stop  offset="0.7192" style="stop-color:#78C4DE"/>
	<stop  offset="0.8137" style="stop-color:#B2DAEA"/>
	<stop  offset="0.8954" style="stop-color:#DAECF3"/>
	<stop  offset="0.9602" style="stop-color:#F3F9FB"/>
	<stop  offset="1" style="stop-color:#FFFFFF"/>
</linearGradient>
<polyline class="st4" points="49.1,11.9 49.1,73 14.4,73.1 14.4,11.9 49.2,11.9 "/>
<g id="Bottom_2_">
	<g id="XMLID_28_" class="st2">
		<g id="XMLID_29_">
			<path id="XMLID_30_" class="st5" d="M19.5,69.4c-6.8,2.1-6.9,5.5-0.1,7.6c6.8,2.1,17.8,2.1,24.6,0c6.8-2.1,6.9-5.5,0.1-7.6
				C37.3,67.3,26.3,67.3,19.5,69.4z"/>
		</g>
	</g>
</g>
<g id="Top_Base_2_">
	<g>
		<g id="XMLID_31_" class="st2">
			<g id="XMLID_36_">
				<path id="XMLID_37_" class="st3" d="M11.5,5C0.2,8.8,0.2,15,11.4,18.8s29.4,3.8,40.7,0C63.3,15,63.4,8.8,52.2,5
					C41,1.2,22.8,1.2,11.5,5z"/>
			</g>
		</g>
	</g>
</g>
<g id="Top_2_">
	<g id="XMLID_14_" class="st2">
		<g id="XMLID_15_">
			<linearGradient id="XMLID_3_" gradientUnits="userSpaceOnUse" x1="14.3433" y1="12.001" x2="49.1813" y2="12.001">
				<stop  offset="1.621622e-02" style="stop-color:#FFFFFF;stop-opacity:0.9"/>
				<stop  offset="3.986841e-02" style="stop-color:#E0E9EE;stop-opacity:0.9"/>
				<stop  offset="8.594665e-02" style="stop-color:#B3CDDA;stop-opacity:0.9"/>
				<stop  offset="0.1321" style="stop-color:#8FB9CB;stop-opacity:0.9"/>
				<stop  offset="0.1775" style="stop-color:#72ABC1;stop-opacity:0.9"/>
				<stop  offset="0.222" style="stop-color:#5CA2BA;stop-opacity:0.9"/>
				<stop  offset="0.2651" style="stop-color:#4D9DB5;stop-opacity:0.9"/>
				<stop  offset="0.3054" style="stop-color:#489BB4;stop-opacity:0.9"/>
				<stop  offset="0.3394" style="stop-color:#65A5BC;stop-opacity:0.9"/>
				<stop  offset="0.4118" style="stop-color:#A2C4D3;stop-opacity:0.9"/>
				<stop  offset="0.5054" style="stop-color:#FFFFFF;stop-opacity:0.9"/>
				<stop  offset="0.5942" style="stop-color:#F4F7F9;stop-opacity:0.9"/>
				<stop  offset="0.6946" style="stop-color:#E5ECF0;stop-opacity:0.9"/>
				<stop  offset="0.7192" style="stop-color:#D6E3EA;stop-opacity:0.9"/>
				<stop  offset="0.7667" style="stop-color:#B0CDDA;stop-opacity:0.9"/>
				<stop  offset="0.8316" style="stop-color:#73AEC3;stop-opacity:0.9"/>
				<stop  offset="0.8541" style="stop-color:#5AA5BC;stop-opacity:0.9"/>
			</linearGradient>
			<path id="XMLID_16_" class="st6" d="M19.5,8.2c-6.8,2.1-6.9,5.5-0.1,7.6s17.8,2.1,24.6,0c6.8-2.1,6.9-5.5,0.1-7.6
				C37.3,6.1,26.3,6.1,19.5,8.2z"/>
		</g>
	</g>
</g>
</svg>
