<svg id="Layer_1" data-name="Layer 1" xmlns="http://www.w3.org/2000/svg" xmlns:xlink="http://www.w3.org/1999/xlink" viewBox="0 0 243.17 258.38"><defs><style>.cls-1{fill:url(#linear-gradient);}.cls-2{fill:#50a5c1;}.cls-3{fill:url(#linear-gradient-2);}.cls-4,.cls-5,.cls-6,.cls-9{fill:none;}.cls-4,.cls-5{stroke:#727373;}.cls-4,.cls-5,.cls-6,.cls-7,.cls-9{stroke-miterlimit:10;}.cls-5{stroke-dasharray:6.12 6.12;}.cls-6{stroke:#231f20;stroke-dasharray:24 2 3 2;}.cls-7{fill:#fff;stroke:#b3b3b3;}.cls-7,.cls-9{stroke-width:0.5px;}.cls-8{isolation:isolate;font-size:6.34px;fill:#005f89;font-family:OpenSans-Bold, Open Sans;font-weight:700;}.cls-9{stroke:#000;}</style><linearGradient id="linear-gradient" x1="-17.96" y1="-207.61" x2="244.71" y2="-207.61" gradientTransform="matrix(1, 0, 0, -1, -1, -0.09)" gradientUnits="userSpaceOnUse"><stop offset="0" stop-color="#808285" stop-opacity="0.9"/><stop offset="0.53" stop-color="#bcbec0" stop-opacity="0.9"/><stop offset="1" stop-color="#f1f2f2" stop-opacity="0.9"/></linearGradient><linearGradient id="linear-gradient-2" x1="53.58" y1="102.52" x2="197.4" y2="102.52" gradientTransform="matrix(1, 0, 0, -1, -11.64, 251.85)" gradientUnits="userSpaceOnUse"><stop offset="0" stop-color="#bde5e9" stop-opacity="0.9"/><stop offset="0.09" stop-color="#b7e3e7" stop-opacity="0.9"/><stop offset="0.28" stop-color="#b3e1e6" stop-opacity="0.9"/><stop offset="0.65" stop-color="#6ab8cc" stop-opacity="0.9"/><stop offset="1" stop-color="#5cadc4" stop-opacity="0.9"/></linearGradient></defs><title>SCylinder_Mass</title><path class="cls-1" d="M241.7,201.2c8-5-4-15.3-27.3-20.7-17-3.9-13.3-9-81.6,7.2-12.2.9-12,4.5-5.8,8.9,10.8,7.7,40,17.6,54.4,19.1,1,.1,2.2.2,3.3.2-1.1,0-2.2-.08-3.3-.2-14.5-1.5-43.6-11.4-54.4-19.1L46.3,214.1c-1,.3,2.4-.6,2-.3v3l-2.5-1.9c-1.7,1.4,5.47,10.52,15.07,14.22,23,8.8,36.73,10.86,70.13,8.46,16.7-1.1,35.8-8,39.3-9.48l16.6-5.5Z" transform="translate(-1 0)"/><g id="Layer_1-2" data-name="Layer 1"><g id="_Group_" data-name=" Group "><g id="_Group_2" data-name=" Group 2"><g id="_Group_3" data-name=" Group 3"><g id="_Group_4" data-name=" Group 4"><path id="_Path_" data-name=" Path " class="cls-2" d="M63.16,196.75c-28.18,9.53-28.33,25-.33,34.51s73.52,9.53,101.69,0,28.35-25,.35-34.51S91.36,187.22,63.16,196.75Z" transform="translate(-1 0)"/></g></g></g></g><g id="_Group_5" data-name=" Group 5"><path id="_Path_2" data-name=" Path 2" class="cls-3" d="M42.17,216.27a8.39,8.39,0,0,1,0-3.86V60H185.76V214.25h0c-.06,6.25-7.15,12.49-21.24,17.26-28.17,9.53-73.7,9.53-101.69,0-12.49-4.25-19.36-9.68-20.66-15.24Z" transform="translate(-1 0)"/></g><g id="_Group_6" data-name=" Group 6"><g id="_Group_7" data-name=" Group 7"><g id="_Group_8" data-name=" Group 8"><g id="_Group_9" data-name=" Group 9"><path id="_Path_3" data-name=" Path 3" class="cls-2" d="M63.16,42.75c-28.18,9.53-28.33,25-.33,34.51s73.52,9.53,101.69,0,28.35-25,.35-34.51S91.36,33.22,63.16,42.75Z" transform="translate(-1 0)"/></g></g></g><path class="cls-4" d="M41.79,213.56a8,8,0,0,1,.58-2.93" transform="translate(-1 0)"/><path class="cls-5" d="M45.91,205.7c9.89-9.38,36.54-17,67.85-17,33,0,60.76,8.87,69.28,17.56" transform="translate(-1 0)"/><path class="cls-4" d="M184.9,208.71a5.72,5.72,0,0,1,.83,2.85" transform="translate(-1 0)"/></g><line class="cls-6" x1="112.77" y1="17.88" x2="112.77" y2="258.38"/><path class="cls-7" d="M84.61.25h58.33a6.94,6.94,0,0,1,6.94,6.94h0a6.94,6.94,0,0,1-6.94,6.94H84.61a6.94,6.94,0,0,1-6.94-6.94h0A6.94,6.94,0,0,1,84.61.25Z" transform="translate(-1 0)"/><text class="cls-8" transform="translate(82.97 9.21)">AXIS OF ROTATION</text></g><g id="Mass"><path class="cls-7" d="M8.19,130.94H26.52a6.94,6.94,0,0,1,6.94,6.94h0a6.94,6.94,0,0,1-6.94,6.94H8.19a6.94,6.94,0,0,1-6.94-6.94h0A6.94,6.94,0,0,1,8.19,130.94Z" transform="translate(-1 0)"/><text class="cls-8" transform="translate(7.63 140.24)">MASS</text></g><g id="Diameter_copy" data-name="Diameter copy"><line class="cls-9" x1="180.62" y1="57.72" x2="45.64" y2="57.72"/><path d="M180.06,54.56v6.28l3.74-3.14Z" transform="translate(-1 0)"/><path d="M46.8,60.84V54.56L43.06,57.7Z" transform="translate(-1 0)"/><rect class="cls-7" x="122.91" y="39.97" width="47.21" height="13.88" rx="6.94" ry="6.94"/><text class="cls-8" transform="translate(130.29 49.27)">DIAMETER</text></g></svg>